# xmcd
#
# Track frame offsets:
#	150
#	18080
#	31834
#	45502
#	57700
#	69582
#	90636
#	104774
#	118152
#	130836
#	142791
#	154332
#
# Disc length: 2217
#
# Revision: 2
# Processed by: cddbd v1.5.1PL0 Copyright (c) Steve Scherf et al.
# Submitted via: EasyCDDAExtractor 7.1.0.1
# Normalized: r1:DSETVAR1
#
DISCID=a208a70c
DTITLE=Various Artist - From The Texas By Ways To The Louisiana Bayou
DYEAR=2003
DGENRE=Blues
TTITLE0=Lightnin' Hopkins - Shake That Thing
TTITLE1=Amos Milburn - One Bourbon, One Scotch, One Beer
TTITLE2=Leadbelly - Where Did You Sleep Last Night
TTITLE3=Charles Brown - Livin In Misery
TTITLE4=Lightnin' Hopkins - Have You Ever Loved A Woman
TTITLE5=Dr. John Mean - Mean Cheatin Woman
TTITLE6=Pee Wee Crayton - Texas Hop
TTITLE7=Lightnin' Hopkins - Mojo Hand
TTITLE8=Eddie Clean Head Vinson - Alimony Blues
TTITLE9=Lightnin' Hopkins - Lonesome Dog
TTITLE10=Leadbelly - Good Night Irene
TTITLE11=Charles Brown - Trouble Blues
EXTD=
EXTT0=
EXTT1=
EXTT2=
EXTT3=
EXTT4=
EXTT5=
EXTT6=
EXTT7=
EXTT8=
EXTT9=
EXTT10=
EXTT11=
PLAYORDER=
